<?xml version="1.0" standalone="no"?>
<!DOCTYPE svg PUBLIC "-//W3C//DTD SVG 20010904//EN"
 "http://www.w3.org/TR/2001/REC-SVG-20010904/DTD/svg10.dtd">
<svg version="1.0" xmlns="http://www.w3.org/2000/svg"
 width="469.000000pt" height="469.000000pt" viewBox="0 0 469.000000 469.000000"
 preserveAspectRatio="xMidYMid meet">

<g transform="translate(0.000000,469.000000) scale(0.100000,-0.100000)"
fill="#000000" stroke="none">
<path d="M0 2345 l0 -2345 118 0 119 0 -25 50 c-21 43 -25 64 -24 135 2 100
18 147 64 175 79 50 170 -7 183 -115 10 -76 1 -158 -23 -206 l-19 -39 97 0
c89 0 98 2 103 20 4 15 14 20 36 20 31 0 31 1 32 53 2 88 -1 180 -5 185 -2 2
-15 -4 -28 -12 -28 -18 -38 -13 -38 20 0 27 84 86 115 82 19 -3 20 -10 21
-163 l1 -160 28 -3 c17 -2 29 -11 32 -23 5 -17 15 -19 116 -19 104 0 109 1 94
18 -28 31 -38 74 -38 164 0 102 18 150 65 179 61 37 130 16 162 -48 28 -57 27
-212 -2 -270 l-21 -43 112 0 c104 0 113 1 118 20 4 15 14 20 36 20 l31 0 2 68
c2 81 -1 165 -7 170 -2 2 -14 -3 -27 -12 -32 -23 -38 -20 -38 14 0 25 8 35 47
60 26 17 55 30 65 30 20 0 19 7 20 -184 0 -65 2 -125 5 -132 3 -8 18 -14 34
-14 22 0 29 -5 29 -20 0 -19 7 -20 94 -20 85 0 94 2 99 20 4 15 14 20 42 20
l37 0 -4 114 c-1 63 -6 117 -10 121 -3 4 -17 -1 -30 -9 -28 -18 -38 -13 -38
19 0 28 81 88 113 83 22 -3 22 -6 25 -166 l2 -162 31 0 c22 0 32 -5 36 -20 5
-18 14 -20 115 -20 l110 0 -23 36 c-27 45 -37 159 -20 232 31 126 171 151 222
39 29 -64 27 -199 -5 -260 l-23 -47 123 0 123 0 -20 35 c-24 41 -35 129 -25
209 18 142 166 184 225 64 31 -65 30 -197 -3 -261 l-23 -47 108 0 c102 0 109
1 109 20 0 16 7 20 35 20 l35 0 0 125 0 124 -35 -20 -35 -21 0 34 c1 28 7 37
46 61 84 51 84 51 84 -138 l0 -165 35 0 c28 0 35 -4 35 -20 0 -19 7 -20 116
-20 l115 0 -21 30 c-27 38 -38 117 -29 205 10 102 56 150 134 141 71 -8 115
-88 115 -205 0 -49 -24 -128 -46 -152 -17 -19 -14 -19 125 -19 l142 0 -21 28
c-42 56 -45 216 -6 290 21 40 75 66 121 58 32 -6 64 -34 82 -71 32 -64 25
-215 -13 -271 l-23 -34 133 0 c125 0 134 1 139 20 4 15 14 20 41 20 l36 0 0
126 0 126 -34 -20 c-38 -23 -46 -20 -46 15 0 17 13 32 48 54 84 53 87 50 90
-139 l2 -162 31 0 c22 0 32 -5 36 -20 5 -19 14 -20 124 -20 l119 0 0 2345 0
2345 -2345 0 -2345 0 0 -2345z m385 2134 c44 -39 59 -91 53 -189 -7 -118 -48
-173 -127 -172 -89 1 -126 61 -126 202 0 107 12 136 68 170 47 29 90 26 132
-11z m764 3 c59 -43 78 -212 34 -300 -50 -98 -182 -84 -223 23 -15 40 -16 162
-1 207 7 21 28 51 48 69 31 27 42 30 76 26 22 -3 52 -14 66 -25z m787 9 c85
-52 86 -296 3 -355 -14 -9 -43 -16 -70 -16 -41 0 -51 4 -77 35 -20 22 -33 50
-38 81 -10 66 0 174 20 211 31 60 103 80 162 44z m374 -152 l0 -159 34 0 c35
0 50 -17 40 -45 -9 -23 -202 -22 -211 1 -3 8 0 21 6 27 12 12 17 14 51 16 19
1 20 8 20 121 0 66 -2 120 -5 120 -3 0 -17 -7 -30 -16 -27 -18 -45 -12 -45 15
0 16 42 51 94 79 42 22 46 9 46 -159z m445 141 c34 -32 48 -81 47 -172 -1
-127 -41 -189 -123 -190 -84 -1 -128 66 -129 194 0 94 21 152 64 180 40 25
108 19 141 -12z m755 -141 l0 -158 33 -3 c27 -2 33 -8 35 -31 l3 -28 -103 3
c-91 3 -103 5 -106 22 -5 23 14 36 51 36 l27 0 0 126 0 125 -29 -20 c-39 -28
-51 -26 -51 7 0 19 9 33 33 48 52 35 69 42 88 37 18 -5 19 -18 19 -164z m448
151 c48 -30 66 -78 67 -185 0 -106 -18 -149 -78 -178 -33 -17 -42 -17 -79 -5
-55 17 -83 59 -92 137 -21 185 69 300 182 231z m-3233 -12 c3 -13 5 -32 4 -43
-1 -11 -1 -73 -1 -137 l2 -116 29 -7 c29 -6 46 -28 35 -46 -3 -5 -50 -9 -105
-9 -98 0 -99 0 -99 24 0 19 7 25 35 30 l35 7 1 67 c1 37 2 87 3 112 3 58 -1
63 -27 45 -32 -22 -47 -19 -47 13 1 21 10 33 43 54 54 34 85 36 92 6z m795
-137 l0 -160 33 -3 c27 -2 33 -8 35 -30 l3 -28 -99 0 c-90 0 -100 2 -105 19
-6 26 11 41 45 41 l28 0 0 126 0 125 -30 -21 c-32 -23 -50 -20 -50 10 0 25 77
79 113 80 l27 0 0 -159z m1583 92 c4 -38 7 -110 7 -160 l0 -93 36 0 c33 0 35
-2 32 -27 l-3 -28 -100 0 c-95 0 -100 1 -103 22 -3 18 3 22 36 28 l40 6 1 126
2 125 -30 -21 c-39 -28 -51 -26 -51 7 0 21 10 33 43 54 23 15 51 28 63 28 19
0 22 -7 27 -67z m1267 -92 l0 -160 33 -3 c27 -2 33 -8 35 -31 l3 -28 -98 3
c-86 3 -98 5 -101 22 -4 21 13 36 44 36 12 0 24 8 26 18 5 23 1 213 -6 219 -2
3 -15 -2 -28 -11 -32 -22 -38 -20 -38 13 0 23 8 34 43 55 23 14 52 25 65 26
22 0 22 -1 22 -159z m-3996 -442 c37 -29 55 -69 62 -136 8 -79 -11 -167 -44
-204 -48 -54 -130 -48 -174 11 -41 56 -42 243 0 299 39 53 109 67 156 30z
m1167 5 c47 -24 69 -82 69 -184 0 -63 -6 -96 -20 -127 -47 -106 -188 -89 -220
26 -13 47 -13 146 1 196 24 88 98 127 170 89z m819 -19 c38 -37 54 -99 48
-193 -8 -143 -76 -202 -175 -155 -56 26 -76 83 -71 197 5 102 22 146 66 171
38 22 98 13 132 -20z m360 -135 l0 -159 33 -3 c27 -2 33 -8 35 -30 l3 -28
-100 0 c-56 0 -103 4 -106 10 -9 15 4 51 18 49 7 -1 22 -1 35 0 22 1 22 4 22
122 l0 121 -25 -16 c-35 -23 -47 -20 -43 12 2 19 16 36 51 59 75 50 77 46 77
-137z m426 149 c9 -7 25 -31 37 -53 26 -51 28 -190 4 -249 -33 -77 -129 -98
-189 -40 -50 48 -63 216 -23 293 32 63 124 89 171 49z m416 -18 c38 -42 54
-127 40 -214 -12 -80 -31 -112 -78 -134 -31 -15 -39 -16 -77 -3 -55 20 -83 62
-91 142 -7 64 5 152 24 189 35 64 133 75 182 20z m378 -132 l0 -158 33 -3 c27
-2 33 -8 35 -30 l3 -28 -105 0 -106 0 0 25 c0 21 6 26 40 31 l40 7 0 119 0
119 -30 -16 c-34 -18 -50 -13 -50 15 0 24 97 89 123 82 15 -4 17 -20 17 -163z
m459 156 c47 -24 66 -76 65 -185 0 -104 -13 -142 -60 -179 -53 -41 -135 -16
-167 52 -25 53 -24 205 3 257 33 64 98 87 159 55z m-3678 -7 c0 -7 1 -77 3
-155 1 -78 4 -144 6 -146 3 -1 19 -7 35 -13 20 -6 30 -16 30 -29 0 -18 -8 -20
-102 -23 l-103 -3 0 25 c0 21 6 26 35 32 l35 6 0 120 0 119 -29 -20 c-38 -27
-41 -27 -41 8 0 24 9 36 43 60 44 31 86 40 88 19z m399 -148 c0 -159 0 -160
23 -160 32 0 50 -14 45 -36 -3 -17 -15 -19 -101 -22 l-97 -3 0 26 c0 18 5 25
19 25 49 0 51 5 51 132 l0 120 -34 -21 c-30 -19 -34 -19 -40 -5 -3 8 -6 21 -6
29 0 17 90 75 118 75 22 0 22 -1 22 -160z m798 -2 c2 -147 4 -158 21 -158 35
0 51 -12 51 -36 0 -24 -1 -24 -105 -24 -104 0 -105 0 -105 24 0 19 7 25 34 30
32 6 34 9 40 59 8 73 7 150 -3 166 -7 11 -13 10 -33 -3 -28 -18 -38 -13 -38
21 0 17 13 32 48 54 84 53 87 49 90 -133z m-1570 -586 c2 -160 3 -162 25 -162
32 0 50 -14 45 -36 -3 -17 -13 -19 -103 -19 -93 0 -100 1 -100 20 0 15 10 22
38 29 l37 10 0 118 c0 65 -3 118 -7 118 -5 0 -17 -7 -27 -15 -31 -24 -48 -19
-44 13 2 20 16 36 52 60 80 53 81 52 84 -136z m424 129 c15 -17 32 -50 39 -73
16 -59 6 -188 -17 -227 -52 -88 -186 -71 -214 27 -13 48 -13 183 1 219 12 33
46 72 74 84 35 15 88 2 117 -30z m769 23 c47 -24 69 -82 69 -184 0 -106 -22
-162 -73 -186 -69 -33 -149 11 -168 92 -12 55 -11 155 2 195 29 84 101 119
170 83z m390 0 c47 -24 71 -88 70 -186 -2 -141 -54 -211 -146 -194 -71 14
-105 75 -105 191 0 159 80 242 181 189z m387 4 c8 -8 12 -59 12 -164 l0 -153
33 -3 c27 -2 32 -7 32 -28 0 -25 -1 -25 -102 -28 l-103 -3 0 26 c0 20 6 27 30
32 17 3 34 11 38 17 9 14 12 161 5 199 -5 26 -7 27 -29 12 -33 -22 -44 -19
-44 13 0 21 11 34 48 59 53 36 63 38 80 21z m386 6 c14 -5 16 -29 16 -165 0
-150 1 -159 19 -159 35 0 51 -12 51 -36 0 -24 -1 -24 -100 -24 -100 0 -100 0
-100 25 0 20 6 25 35 31 l35 6 0 119 0 120 -31 -17 c-34 -17 -53 -9 -47 22 2
14 90 84 105 84 1 0 8 -3 17 -6z m406 -165 l0 -158 35 -7 c29 -5 35 -11 35
-30 l0 -25 -102 3 c-95 3 -103 4 -103 23 0 15 10 22 38 29 l37 10 0 118 0 119
-30 -16 c-39 -20 -40 -20 -40 13 0 22 9 33 51 59 28 17 58 29 65 26 11 -4 14
-38 14 -164z m398 3 l2 -162 35 0 c32 0 35 -2 35 -30 l0 -30 -100 0 c-84 0
-102 3 -107 16 -8 21 21 44 54 44 23 0 23 1 23 120 l0 121 -31 -16 c-34 -18
-34 -18 -43 12 -6 18 2 28 46 58 83 55 83 55 86 -133z m459 143 c39 -26 57
-80 57 -170 0 -141 -37 -200 -125 -200 -68 0 -105 37 -117 118 -31 201 64 331
185 252z m413 -150 l0 -153 36 -6 c29 -6 35 -11 32 -29 -3 -21 -9 -22 -105
-25 l-103 -3 0 25 c0 21 6 25 40 31 l40 7 0 119 c0 65 -3 119 -7 119 -5 0 -17
-7 -27 -15 -30 -23 -46 -18 -46 13 0 28 11 39 79 74 57 29 61 18 61 -157z
m-3260 5 c0 -159 0 -160 23 -160 32 0 50 -14 45 -36 -3 -17 -13 -19 -103 -19
-93 0 -100 1 -100 20 0 15 10 22 38 29 l37 10 0 119 0 119 -33 -21 c-37 -23
-47 -19 -47 14 0 26 81 85 118 85 22 0 22 -1 22 -160z m-729 -456 c64 -61 66
-260 2 -326 -49 -51 -133 -45 -174 13 -39 56 -41 236 -3 295 39 58 124 67 175
18z m764 3 c19 -19 38 -52 45 -78 16 -56 8 -174 -14 -219 -44 -94 -164 -92
-207 3 -23 52 -26 197 -5 248 35 84 121 106 181 46z m1191 14 c48 -30 67 -91
62 -198 -5 -105 -24 -148 -74 -169 -77 -32 -156 20 -170 112 -10 66 0 174 20
211 31 60 103 80 162 44z m407 -1 c43 -34 60 -96 55 -197 -5 -100 -23 -145
-68 -168 -58 -30 -126 -10 -157 48 -26 47 -26 229 1 273 38 63 118 84 169 44z
m403 -11 c34 -31 48 -83 48 -169 -1 -136 -58 -213 -146 -196 -67 12 -108 85
-108 191 1 103 31 172 85 196 32 14 95 3 121 -22z m400 0 c51 -48 68 -180 36
-274 -39 -115 -166 -126 -217 -18 -24 50 -25 192 -2 245 32 75 127 100 183 47z
m426 -8 c54 -61 60 -238 9 -310 -55 -77 -172 -57 -200 33 -27 89 -19 217 17
266 44 59 126 65 174 11z m445 -5 c36 -39 50 -110 39 -203 -12 -99 -52 -149
-120 -147 -57 1 -84 18 -107 67 -26 59 -26 196 1 255 36 79 127 93 187 28z
m-3705 17 c3 -27 5 -108 7 -210 1 -91 2 -93 25 -93 29 0 49 -22 40 -44 -5 -13
-23 -16 -105 -16 -98 0 -99 0 -99 24 0 24 16 36 51 36 18 0 19 8 19 121 l0
120 -26 -20 c-36 -28 -44 -26 -44 8 0 24 9 36 43 60 48 34 86 40 89 14z m799
0 c1 -10 2 -61 3 -113 5 -201 3 -187 36 -193 24 -5 30 -12 30 -32 l0 -25 -100
0 c-99 0 -100 0 -100 24 0 24 16 36 51 36 18 0 19 8 19 121 l0 121 -25 -16
c-35 -23 -45 -20 -45 12 1 48 128 111 131 65z m397 -145 l3 -157 32 -3 c27 -2
32 -7 32 -28 0 -25 -1 -25 -103 -28 l-103 -3 3 28 c3 24 8 28 41 31 l37 3 0
120 c0 65 -3 119 -7 119 -5 0 -17 -7 -27 -15 -29 -22 -46 -18 -46 9 0 31 73
87 110 83 l25 -2 3 -157z m-1153 -451 c19 -19 38 -52 45 -78 16 -56 7 -186
-14 -227 -48 -93 -188 -75 -216 27 -15 54 -12 196 4 236 18 42 69 75 115 75
24 0 42 -9 66 -33z m797 7 c35 -32 48 -78 48 -171 -1 -139 -36 -196 -122 -196
-79 0 -127 69 -128 181 0 94 16 147 58 183 31 27 41 31 79 26 24 -2 53 -13 65
-23z m363 12 c54 -23 79 -81 78 -187 0 -104 -20 -154 -73 -183 -45 -24 -102
-15 -135 20 -31 34 -49 112 -43 193 6 82 22 118 67 148 39 27 59 28 106 9z
m396 -20 c0 -11 1 -68 3 -126 4 -174 4 -170 25 -170 35 0 51 -12 51 -36 0 -24
-1 -24 -105 -24 -104 0 -105 0 -105 24 0 19 7 25 35 30 32 6 35 10 36 44 5
127 5 169 1 185 -4 16 -7 16 -38 -4 l-34 -21 0 34 c0 29 6 37 51 65 55 34 79
34 80 -1z m-1971 -140 c0 -125 3 -164 13 -163 46 1 57 -4 57 -28 l0 -25 -100
0 c-82 0 -102 3 -107 16 -8 21 6 33 45 36 l32 2 0 124 0 124 -33 -21 c-37 -23
-47 -19 -47 15 0 29 73 83 113 84 l27 0 0 -164z m770 -2 c0 -113 3 -163 11
-159 5 4 21 4 35 1 19 -5 25 -12 22 -29 -3 -21 -8 -22 -100 -25 -98 -3 -98 -3
-98 22 0 19 6 25 35 30 l35 7 0 119 0 120 -32 -20 c-36 -22 -48 -18 -48 15 0
30 72 84 113 85 l27 0 0 -166z m1600 1 l0 -165 35 0 c30 0 35 -3 35 -24 0 -21
-6 -25 -49 -31 -27 -4 -74 -4 -105 0 -46 6 -56 11 -56 26 0 20 4 23 53 33 l27
6 0 120 0 120 -32 -20 c-37 -22 -48 -18 -48 16 0 18 12 32 47 54 26 17 57 30
70 30 l23 0 0 -165z m390 0 l0 -165 35 0 c30 0 35 -3 35 -24 0 -25 -27 -38
-65 -31 -11 2 -46 4 -77 4 -55 1 -58 2 -58 26 0 18 5 25 19 25 49 0 51 5 51
132 l0 119 -29 -20 c-38 -28 -41 -27 -41 12 0 27 7 37 42 60 23 15 52 27 65
27 l23 0 0 -165z m400 5 l0 -160 35 0 c32 0 35 -2 35 -30 l0 -30 -99 0 c-71 0
-101 4 -104 13 -8 23 5 36 39 43 l34 6 0 120 0 119 -29 -20 c-38 -28 -41 -27
-41 12 0 27 7 36 43 59 23 15 52 28 65 28 22 0 22 -1 22 -160z m430 -5 c4
-118 8 -160 18 -161 6 -1 21 -2 32 -2 14 -2 20 -9 20 -27 l0 -26 -102 3 c-95
3 -103 5 -103 23 0 14 10 22 38 28 l37 9 0 119 c0 65 -3 119 -7 119 -5 0 -17
-7 -27 -15 -31 -24 -48 -19 -44 12 4 34 71 84 108 80 l25 -2 5 -160z m438 -2
l2 -163 35 0 c30 0 35 -3 35 -24 0 -23 -4 -25 -62 -28 -110 -6 -148 0 -148 23
0 20 4 23 53 33 l27 6 0 120 c0 66 -3 120 -7 120 -5 0 -17 -7 -27 -15 -29 -22
-46 -18 -46 9 0 31 73 87 110 83 l25 -2 3 -162z m-4003 -435 c41 -32 65 -93
65 -168 0 -115 -29 -180 -88 -201 -61 -21 -119 4 -150 66 -30 61 -21 224 17
275 38 53 109 65 156 28z m765 7 c50 -26 65 -67 65 -180 -1 -127 -22 -177 -84
-196 -50 -15 -87 -5 -121 31 -33 35 -40 67 -40 172 0 93 18 141 64 169 38 23
77 24 116 4z m1226 -16 c33 -31 47 -82 47 -171 -2 -138 -57 -211 -148 -194
-72 14 -105 74 -105 196 0 104 27 166 85 191 32 14 95 3 121 -22z m394 6 c37
-33 53 -97 48 -192 -5 -102 -24 -144 -76 -169 -60 -28 -129 3 -158 73 -17 39
-18 167 -3 214 13 39 45 77 74 90 29 13 93 4 115 -16z m792 -2 c41 -37 52 -74
52 -168 0 -107 -17 -155 -66 -185 -42 -25 -74 -25 -116 0 -47 29 -65 78 -65
181 1 100 19 151 67 181 37 23 97 19 128 -9z m429 -11 c62 -69 63 -250 3 -322
-50 -59 -150 -43 -186 30 -24 47 -25 193 -1 251 32 82 128 103 184 41z m432 8
c18 -16 39 -47 45 -68 15 -49 15 -144 1 -197 -33 -123 -171 -141 -221 -28 -17
38 -20 61 -16 137 5 101 18 137 64 166 43 29 87 26 127 -10z m-3692 -27 c6
-303 3 -283 39 -283 35 0 49 -22 29 -46 -10 -12 -31 -15 -93 -13 -99 2 -106 5
-106 35 0 17 6 24 19 24 49 0 51 6 51 126 0 63 -3 114 -7 114 -5 0 -17 -7 -27
-15 -29 -22 -36 -19 -36 15 0 25 8 35 47 60 68 44 83 41 84 -17z m800 35 c1
-7 3 -49 4 -93 6 -229 5 -225 35 -225 19 0 29 -6 33 -20 8 -33 -15 -41 -110
-38 -88 3 -88 3 -91 31 -3 25 -1 27 32 27 l36 0 0 120 c0 66 -3 120 -7 120 -5
0 -17 -7 -27 -15 -29 -22 -36 -19 -36 15 0 24 9 36 42 60 42 31 87 40 89 18z
m397 -149 l2 -157 36 -7 c29 -5 35 -10 32 -28 -2 -18 -11 -23 -53 -27 -27 -3
-74 -3 -102 -2 -48 3 -53 6 -53 27 0 18 7 24 35 29 38 8 37 3 37 116 1 135 1
133 -24 116 -32 -23 -48 -20 -48 8 0 31 73 87 110 83 l25 -2 3 -156z m1192 -4
l0 -165 36 0 c33 0 35 -2 32 -27 -3 -27 -4 -28 -78 -31 -99 -4 -120 2 -120 33
0 22 4 25 35 25 l35 0 0 126 0 125 -29 -20 c-38 -27 -41 -27 -41 8 0 24 9 36
43 60 23 17 52 30 65 31 22 0 22 0 22 -165z m-2760 -595 c0 -120 3 -158 13
-157 47 1 57 -4 57 -28 l0 -26 -102 3 c-89 3 -103 5 -106 21 -4 17 2 21 51 31
l27 6 0 121 0 121 -25 -16 c-35 -23 -55 -20 -55 9 0 17 12 32 43 53 93 64 97
58 97 -138z m422 141 c46 -51 62 -165 37 -256 -14 -50 -68 -105 -103 -105 -52
0 -92 25 -115 72 -29 60 -30 193 -1 256 35 76 128 93 182 33z m765 22 c52 -24
73 -77 73 -183 0 -61 -6 -96 -19 -125 -23 -51 -41 -66 -90 -72 -95 -13 -149
75 -138 223 6 84 26 128 70 154 39 24 59 25 104 3z m401 -3 c47 -29 62 -73 62
-180 0 -136 -30 -188 -112 -197 -90 -9 -138 61 -138 204 0 150 90 233 188 173z
m387 -14 c3 -11 5 -30 4 -41 -1 -11 -1 -75 -1 -142 l2 -122 33 -3 c24 -2 33
-8 35 -25 4 -29 -19 -35 -123 -31 -79 3 -80 3 -83 31 -3 25 -1 27 32 27 l36 0
0 126 0 125 -29 -20 c-32 -23 -41 -19 -41 18 0 21 11 33 51 58 55 34 76 34 84
-1z m395 -142 l0 -164 35 0 c31 0 35 -3 35 -25 0 -23 -3 -25 -52 -26 -150 -3
-148 -3 -148 26 0 20 5 25 28 26 15 1 30 1 35 0 4 0 7 55 7 124 l0 124 -34
-20 c-30 -18 -34 -18 -40 -3 -3 8 -6 22 -6 29 0 18 108 85 126 78 11 -4 14
-38 14 -169z m405 162 c55 -23 79 -81 79 -191 0 -125 -32 -182 -111 -191 -72
-9 -117 35 -134 134 -20 111 11 218 72 249 31 16 52 16 94 -1z m1272 -6 c53
-32 67 -71 68 -180 0 -82 -3 -101 -24 -136 -36 -63 -90 -80 -152 -48 -45 23
-69 83 -69 174 0 89 11 134 42 168 43 45 86 52 135 22z m-3277 -154 l0 -165
32 -3 c35 -3 51 -33 26 -49 -15 -10 -158 -12 -182 -3 -17 7 -22 39 -7 48 4 3
22 7 40 8 l31 2 0 123 0 123 -32 -20 c-36 -22 -48 -18 -48 15 0 27 79 85 117
85 l23 0 0 -164z m2390 -1 l0 -165 36 0 c33 0 35 -2 32 -27 -3 -26 -6 -28 -58
-31 -30 -2 -74 -1 -97 3 -37 5 -43 10 -43 31 0 17 6 24 19 24 49 0 51 5 51
132 l0 119 -29 -20 c-38 -28 -41 -27 -41 12 0 27 7 36 43 59 23 15 52 28 65
28 22 0 22 -1 22 -165z m430 6 l0 -159 35 -6 c29 -6 35 -11 35 -32 l0 -25
-102 3 c-95 3 -103 5 -103 23 0 14 10 22 38 28 l37 9 0 120 0 120 -34 -21
c-30 -19 -34 -19 -40 -5 -3 8 -6 22 -6 30 0 19 87 74 117 74 l23 0 0 -159z"/>
<path d="M261 4424 c-17 -22 -21 -41 -21 -101 0 -89 18 -140 54 -149 38 -9 55
1 73 43 21 52 14 184 -12 213 -26 29 -69 26 -94 -6z"/>
<path d="M1024 4415 c-8 -19 -14 -66 -14 -107 0 -103 28 -148 82 -135 36 9 53
57 53 148 0 96 -18 129 -71 129 -31 0 -37 -4 -50 -35z"/>
<path d="M1829 4434 c-10 -12 -14 -46 -14 -120 0 -94 2 -106 22 -126 19 -18
27 -20 50 -12 15 5 33 21 40 34 16 32 16 178 0 210 -16 32 -76 40 -98 14z"/>
<path d="M2629 4433 c-10 -11 -14 -46 -14 -118 0 -87 3 -106 19 -124 34 -37
80 -22 100 33 14 39 8 176 -9 202 -19 29 -75 33 -96 7z"/>
<path d="M3856 4428 c-22 -35 -28 -82 -20 -154 7 -74 28 -104 69 -104 42 0 59
40 60 139 0 67 -4 93 -18 114 -23 35 -70 37 -91 5z"/>
<path d="M271 3841 c-21 -21 -35 -121 -25 -178 10 -61 30 -85 67 -81 46 4 62
42 62 149 0 71 -3 91 -19 108 -24 26 -60 27 -85 2z"/>
<path d="M1444 3839 c-16 -18 -19 -37 -19 -119 0 -107 14 -140 61 -140 49 0
71 62 62 180 -6 91 -58 130 -104 79z"/>
<path d="M2249 3841 c-20 -16 -24 -30 -27 -96 -5 -90 11 -160 34 -151 9 3 12
1 9 -4 -12 -20 42 -10 61 11 16 18 19 37 19 119 0 82 -3 101 -19 119 -24 26
-47 27 -77 2z"/>
<path d="M3033 3833 c-25 -39 -25 -187 0 -226 30 -46 88 -30 103 29 3 13 4 62
3 110 -3 71 -7 88 -23 100 -31 22 -64 17 -83 -13z"/>
<path d="M3440 3840 c-14 -14 -20 -35 -21 -67 -5 -148 9 -193 62 -193 25 0 32
6 45 36 21 50 20 188 -1 220 -19 30 -58 31 -85 4z"/>
<path d="M4294 3835 c-13 -19 -15 -45 -12 -126 3 -109 14 -129 65 -129 41 0
58 43 57 145 0 110 -11 135 -59 135 -26 0 -39 -6 -51 -25z"/>
<path d="M654 3249 c-26 -29 -33 -169 -10 -222 12 -31 20 -37 44 -37 52 0 67
30 67 134 0 71 -4 98 -18 119 -21 33 -56 35 -83 6z"/>
<path d="M1444 3249 c-16 -18 -19 -37 -19 -119 0 -82 3 -101 19 -119 38 -42
90 -20 102 45 9 51 -1 181 -16 199 -18 22 -64 19 -86 -6z"/>
<path d="M1841 3251 c-37 -37 -40 -203 -4 -243 20 -22 66 -23 84 -2 19 23 24
201 7 234 -17 32 -60 38 -87 11z"/>
<path d="M3861 3251 c-35 -35 -38 -185 -5 -238 17 -27 65 -31 83 -9 18 21 29
123 21 185 -10 76 -56 105 -99 62z"/>
<path d="M271 2661 c-35 -35 -38 -186 -5 -238 18 -28 54 -30 85 -4 22 18 24
26 24 119 0 84 -4 104 -19 121 -24 26 -60 27 -85 2z"/>
<path d="M1039 2663 c-19 -22 -25 -184 -9 -224 22 -53 92 -47 107 9 12 42 8
184 -6 210 -14 27 -71 31 -92 5z"/>
<path d="M2245 2660 c-28 -31 -33 -172 -8 -220 22 -43 60 -51 89 -19 16 18 19
36 19 119 0 82 -3 101 -19 119 -24 27 -58 27 -81 1z"/>
<path d="M2646 2665 c-33 -34 -34 -209 0 -246 25 -27 60 -24 81 8 23 35 26
210 4 236 -17 21 -65 22 -85 2z"/>
<path d="M3042 2662 c-36 -36 -39 -186 -6 -239 14 -23 48 -30 71 -15 6 4 17
20 22 35 15 39 13 176 -2 207 -16 32 -59 38 -85 12z"/>
<path d="M3433 2654 c-12 -20 -16 -46 -15 -110 1 -108 15 -139 62 -139 28 0
37 5 48 28 19 40 17 193 -3 223 -22 34 -69 32 -92 -2z"/>
<path d="M3861 2661 c-34 -34 -38 -187 -5 -238 16 -26 51 -30 80 -9 16 12 20
29 22 115 3 81 1 107 -12 126 -20 30 -58 33 -85 6z"/>
<path d="M4300 2658 c-26 -28 -31 -146 -9 -216 12 -35 50 -53 78 -35 43 27 54
211 15 254 -23 25 -58 24 -84 -3z"/>
<path d="M650 2070 c-17 -17 -20 -33 -20 -112 0 -111 12 -142 57 -146 50 -5
68 31 68 138 0 65 -4 92 -18 113 -21 33 -58 36 -87 7z"/>
<path d="M1444 2069 c-16 -18 -19 -37 -19 -119 0 -82 3 -101 19 -119 24 -27
58 -27 82 0 16 18 19 37 19 124 0 113 -9 135 -55 135 -15 0 -35 -9 -46 -21z"/>
<path d="M1848 2079 c-53 -30 -48 -244 7 -265 26 -10 61 4 73 31 15 33 16 180
1 208 -20 37 -47 46 -81 26z"/>
<path d="M263 1473 c-23 -35 -25 -173 -3 -218 21 -43 71 -47 97 -9 27 42 26
203 -1 233 -28 30 -71 28 -93 -6z"/>
<path d="M1052 1493 c-22 -9 -33 -51 -33 -134 -1 -100 18 -139 68 -139 45 0
70 84 58 191 -4 33 -14 66 -22 74 -14 15 -46 18 -71 8z"/>
<path d="M2245 1480 c-28 -31 -33 -172 -8 -220 22 -43 60 -51 89 -19 15 17 20
39 22 113 3 108 -8 140 -54 144 -20 2 -36 -4 -49 -18z"/>
<path d="M2644 1479 c-16 -18 -19 -37 -19 -119 0 -107 14 -140 61 -140 43 0
59 42 59 153 0 86 -2 100 -19 113 -28 20 -60 17 -82 -7z"/>
<path d="M3440 1480 c-17 -17 -20 -33 -20 -112 0 -115 12 -143 60 -143 28 0
37 5 49 29 20 42 18 189 -3 221 -20 31 -58 33 -86 5z"/>
<path d="M3860 1480 c-17 -17 -20 -33 -20 -112 0 -115 12 -143 60 -143 28 0
37 5 48 28 19 40 17 193 -3 223 -19 30 -58 31 -85 4z"/>
<path d="M4304 1479 c-34 -37 -32 -209 2 -244 22 -21 58 -19 80 6 16 18 19 37
19 119 0 82 -3 101 -19 119 -24 27 -58 27 -82 0z"/>
<path d="M655 894 c-17 -13 -20 -28 -23 -112 -3 -115 8 -145 54 -150 53 -5 68
24 69 132 0 71 -4 98 -18 119 -20 30 -51 35 -82 11z"/>
<path d="M1449 891 c-21 -17 -23 -27 -24 -107 0 -106 9 -148 31 -140 9 3 12 1
9 -4 -10 -16 42 -11 59 5 19 20 30 90 24 165 -6 90 -47 123 -99 81z"/>
<path d="M1834 889 c-16 -18 -19 -36 -19 -119 0 -82 3 -101 19 -119 20 -22 51
-27 74 -13 31 20 45 191 19 242 -17 34 -66 39 -93 9z"/>
<path d="M3041 891 c-35 -35 -38 -186 -4 -239 20 -32 72 -27 90 8 18 36 17
184 -2 220 -18 35 -55 40 -84 11z"/>
<path d="M4304 889 c-16 -18 -19 -37 -19 -124 0 -114 9 -135 56 -135 35 0 55
28 64 93 9 61 -2 153 -21 172 -22 21 -58 19 -80 -6z"/>
<path d="M272 307 c-33 -40 -37 -195 -6 -244 21 -33 68 -31 91 4 26 40 25 203
-2 232 -20 24 -67 28 -83 8z"/>
<path d="M1035 290 c-20 -38 -22 -178 -3 -217 10 -21 22 -29 45 -31 51 -5 68
30 67 142 0 111 -11 136 -59 136 -28 0 -37 -5 -50 -30z"/>
<path d="M2245 300 c-41 -46 -27 -250 18 -258 62 -12 87 28 87 139 0 70 -12
118 -33 131 -22 14 -54 8 -72 -12z"/>
<path d="M2645 300 c-23 -25 -32 -147 -16 -207 12 -44 36 -59 78 -51 51 10 59
239 10 270 -22 14 -54 8 -72 -12z"/>
<path d="M3439 303 c-9 -10 -15 -49 -17 -112 -3 -118 8 -146 58 -146 29 0 37
5 49 30 21 43 19 186 -3 219 -19 30 -66 35 -87 9z"/>
<path d="M3867 308 c-38 -29 -45 -192 -10 -246 21 -35 73 -27 92 13 21 43 19
187 -3 220 -18 27 -52 33 -79 13z"/>
</g>
</svg>
