<svg xmlns="http://www.w3.org/2000/svg"
     viewBox="0 0 130 130"
     width="130"
     height="130">
    
    <defs>
        <mask id="cutout">
            <rect width="130" height="130" fill="#FFFFFF" />
            <path
                d="
                    M 30 30
                    L 30 85
                    L 45 70
                    L 60 85
                    L 60 30
                    L 45 45
                    Z
        "
                fill="#000000" 
            />
        </mask>
    </defs>
    
    <path
        d="
            M 20 100
            L 20 15
            L 25 15
            L 45 30
            L 60 15
            L 70 15
            L 85 30
            L 100 15
            L 110 15
            L 110 60
            L 123 70
            L 115 75
            L 110 70
            L 110 100
            L 100 100
            L 100 60
            L 88 48
            L 93 40
            L 100 50
            L 100 30
            L 85 45
            L 70 30
            L 70 100
            L 60 100
            L 45 80
            L 25 100

            Z
"
        fill="#ff0000"
        mask="url(#cutout)" 
    />
    
</svg>