<?xml version="1.0" encoding="UTF-8"?>
<svg id="_レイヤー_2" data-name="レイヤー 2" xmlns="http://www.w3.org/2000/svg" viewBox="0 0 60 60">
    <!--
        viewBox="min-x  min-y  width  height"
    -->
    <defs>
        <style>
            .cls-1 {
                fill: #3fa9f5;
            }
            .cls-2 {
                fill: #fff;
            }
        </style>
    </defs>
    <g id="_メインロゴ" data-name="メインロゴ">
        <g id="_ロゴ" data-name="ロゴ">
            <g id="_シンボルマーク_修正完了" data-name="★ シンボルマーク_修正完了">
                <g id="_完成_シンボルマーク" data-name="完成_シンボルマーク">
                    <g id="_完成_中の塗り" data-name="完成_中の塗り">
                        <path 
                            class="cls-2" 
                            d="
M54.513,26.751
c-.246-2.272-1.239-4.459-2.794-6.135
c-.409-.439-1.163-.922-.765-1.606
C56.146,10.329,48.668-.674,38.704.806
c-3.324.468-6.239,2.229-8.226,4.983
c-.619.872-1.279,1.734-1.94,2.537
c-3.659,4.37-7.584,7.468-12.513,10.781
c-3.949,2.714-7.869,4.697-11.428,8.17
c-10.156,10.169-2.303,28.038,12.036,27.512
c1.221-.04,2.432-.208,3.593-.492
c.468-.115.934.233.973.713
c.076.926.114,1.832.114,2.711
c-.066,2.614,2.191,4.942,4.793,4.879
c1.303,0,2.571-.537,3.498-1.539
c2.251-2.43,4.231-5.108,5.898-7.979
c.115-.198.313-.338.539-.381
c2.492-.481,4.82-1.009,7.095-1.611
c1.98-.459,4.017-1.276,5.345-2.662
c2.999-2.803,3.842-7.642,2.019-11.315
c-.189-.381.02-.794.336-1.042
c2.634-2.268,4.161-6.049,3.677-9.318
Z
"
                        />
                    </g>
                    <g id="_完成_アンカーポイント減らした後" data-name="完成_アンカーポイント減らした後">
                        <path 
                            class="cls-1" 
                            d="
M54.513,26.751
c-.246-2.272-1.239-4.459-2.794-6.135
c-.409-.439-1.163-.922-.765-1.606
C56.146,10.329,48.668-.674,38.704.806
c-3.324.468-6.239,2.229-8.226,4.983
c-.619.872-1.279,1.734-1.94,2.537
c-3.659,4.37-7.584,7.468-12.513,10.781
c-3.949,2.714-7.869,4.697-11.428,8.17
c-10.156,10.169-2.303,28.038,12.036,27.512
c1.221-.04,2.432-.208,3.593-.492
c.468-.115.934.233.973.713
c.076.926.114,1.832.114,2.711
c-.066,2.614,2.191,4.942,4.793,4.879
c1.303,0,2.571-.537,3.498-1.539
c2.251-2.43,4.231-5.108,5.898-7.979
c.115-.198.313-.338.539-.381
c2.492-.481,4.82-1.009,7.095-1.611
c1.98-.459,4.017-1.276,5.345-2.662
c2.999-2.803,3.842-7.642,2.019-11.315
c-.189-.381.02-.794.336-1.042
c2.634-2.268,4.161-6.049,3.677-9.318
Z

M44.381,35.566
c-1.65.749-3.657,1.381-6.214,1.992
c-2.101.496-1.834,3.428.281,3.482
c2.754-.503,5.332-1.383,7.494-2.348
c.424-.197.921-.003,1.094.430
c1.18,2.945-.098,6.795-3.786,7.780
c-3.219.920-6.498,1.618-9.792,2.208
c-.239.042-.442.193-.555.408
c-1.715,3.268-3.819,6.219-6.232,8.823
c-.485.524-1.358.184-1.356-.530
c.004-1.891-.144-3.767-.406-5.623
c-.040-.286.080-.564.310-.738
c4.197-3.098,5.983-9.082,4.134-13.973
c-1.69-5.313-8.152-8.173-13.156-5.778
c-4.005,1.787-5.741,6.591-3.727,10.548
c1.410,2.895,5.233,4.118,8.040,2.781
c1.095-.489,1.441-1.963.460-2.911
c-1.181-1.135-2.608.471-3.967-.230
c-.678-.260-1.215-.768-1.511-1.433
c-2.282-6.857,8.008-8.224,10.315-2.423
c2.85,6.629-2.458,12.792-9.305,12.758
c-10.645.356-16.769-12.902-9.049-20.712
c3.179-3.080,7.171-5.148,10.796-7.646
c5.888-3.896,11.422-8.505,15.492-14.327
c6.81-8.701,19.587.742,13.177,9.837
c-2.657,3.646-7.213,6.835-13.040,9.086
c-.803.310-1.350,1.129-1.192,1.976
c.206,1.118,1.362,1.713,2.351,1.328
c4.952-1.900,9.114-4.462,12.178-7.440
c1.441-1.177,3.342,3.031,3.324,4.287
c.493,4.122-2.817,6.797-6.156,8.386
Z
"
                        />
                        <!--
                            path
                                M               : 移動
                                C/c             : 曲線
                                Z               : 閉じる
                            例 : 
                            M54.513,26.751      : ペンを座標 (54.513, 26.751) に移動(開始地点)
                        -->
                    </g>
                </g>
            </g>
        </g>
    </g>
</svg>