<svg xmlns="http://www.w3.org/2000/svg" viewBox="60 70 290 242">
    <path fill="#1DA1F2" d="&#10;            M153 301c94 0 146-78 146-146v-7c10-7 19-16 26-26-9 4-19 6-29 7 10-6 18-15 22-26-10 6-21 10-33 13-9-10-22-16-36-16-27 0-49 22-49 49 0 4 0 8 1 12-41-2-77-22-101-52-4 7-7 15-7 24 0 17 9 32 22 41-8 0-15-2-22-6v1c0 24 17 43 39 48-4 1-9 2-14 2-3 0-7 0-10-1 7 21 27 36 51 36-19 15-42 24-67 24-4 0-9 0-13-1 24 16 52 25 82 25&#10;        " style="fill:rgb(29, 161, 242);stroke:none;color:rgb(0, 0, 0);stroke-width:1px;stroke-linecap:butt;stroke-linejoin:miter;opacity:1;font-family:&quot;Anthropic Sans&quot;, -apple-system, BlinkMacSystemFont, &quot;Segoe UI&quot;, sans-serif;font-size:16px;font-weight:400;text-anchor:start;dominant-baseline:auto"/>
</svg>